<svg xmlns="http://www.w3.org/2000/svg" xmlns:xlink="http://www.w3.org/1999/xlink" viewBox="0 0 500 500"><defs><style>.cls-1,.cls-3,.cls-4,.cls-5,.cls-6{fill:none;}.cls-2{clip-path:url(#clip-path);}.cls-3{stroke:#a0a09c;}.cls-3,.cls-4,.cls-5,.cls-6{stroke-linecap:round;stroke-linejoin:round;}.cls-4{stroke:#686866;}.cls-4,.cls-5{stroke-width:3px;}.cls-5,.cls-6{stroke:#222221;}.cls-6{stroke-width:4px;}</style><clipPath id="clip-path"><rect class="cls-1" width="500" height="500"/></clipPath></defs><g id="OBJECTS"><g class="cls-2"><polyline class="cls-3" points="24.01 26.25 33.69 25.1 47.8 10.33"/><polyline class="cls-3" points="40.36 5.05 57.53 17.22 100.53 -6.95"/><polyline class="cls-3" points="50.19 20.39 62.69 27.55 75.03 20.39 74.19 13.39"/><line class="cls-3" x1="84.36" y1="6.89" x2="56.67" y2="24.1"/><line class="cls-3" x1="68.64" y1="24.1" x2="64.86" y2="18.29"/><line class="cls-3" x1="92.03" x2="101.11" y2="14.19"/><polyline class="cls-3" points="29.2 31.72 20.69 45.55 2.69 52.05"/><line class="cls-3" x1="26.92" y1="57.43" x2="20.69" y2="45.56"/><path class="cls-3" d="M76.28,29.06s22.08,7.18,28.91,9.57S126.1,48.74,126.1,48.74s17.13,11.1,25.26,11.76,21.45,0,29.31,2,22.45,6.88,22.45,6.88l34,9.82,50.15,14.4s48.77,7.83,53.89,7.49,10.59-2.36,17.08-2,28.38,1.93,34,4.2,25.43,12.53,30.9,12.87,30.29-3.76,30.29-3.76,12.05-1.71,16.49,0,34.43,3.78,34.43,3.78"/><path class="cls-3" d="M50.19,51.65s9.68-2.32,14.67-4,5.3-1.6,11.42-2S88,44.17,94.56,35.06"/><line class="cls-3" x1="66.75" y1="34.48" x2="62.61" y2="48.34"/><line class="cls-3" x1="77.97" y1="29.61" x2="68.64" y2="46.43"/><line class="cls-3" x1="81.34" y1="30.71" x2="74.07" y2="45.72"/><line class="cls-3" x1="87.54" y1="32.74" x2="80.88" y2="44.99"/><line class="cls-3" x1="97.2" y1="41.89" x2="80.33" y2="75.73"/><line class="cls-3" x1="111.2" y1="41.16" x2="91.32" y2="84.8"/><line class="cls-3" x1="91.32" y1="53.7" x2="103.16" y2="58.81"/><line class="cls-3" x1="85.77" y1="80.21" x2="97.2" y2="56.25"/><line class="cls-3" x1="86.14" y1="64.08" x2="98.02" y2="70.09"/><line class="cls-3" x1="116.84" y1="43.89" x2="95.44" y2="88.23"/><polyline class="cls-3" points="89.72 56.89 85.18 55.28 74.07 70.61"/><path class="cls-3" d="M99,15.49l2.12,21.75a72.2,72.2,0,0,1,38.23-15.33c23.14-2.05,34.23.26,45.53-2.81"/><line class="cls-3" x1="100.67" y1="32.74" x2="112.12" y2="26.37"/><line class="cls-3" x1="133.26" y1="34.48" x2="124.15" y2="29.61"/><line class="cls-3" x1="127.18" y1="24.1" x2="120.84" y2="35.6"/><polyline class="cls-3" points="94.56 47.19 92.03 46.43 75.03 61.08"/><line class="cls-3" x1="77.7" y1="52.06" x2="57.99" y2="57.73"/><line class="cls-3" x1="165.42" y1="-4.44" x2="108.96" y2="99.57"/><polyline class="cls-3" points="186.36 -4.45 122.14 110.76 80.36 156.03"/><polyline class="cls-3" points="173.69 18.29 160.86 20.93 115.93 105.47"/><line class="cls-3" x1="139.18" y1="43.89" x2="146.71" y2="47.56"/><line class="cls-3" x1="156.19" y1="3.39" x2="173.69" y2="13.39"/><line class="cls-3" x1="172.19" y1="-4.44" x2="181.02" y2="5.14"/><line class="cls-3" x1="187.53" y1="-0.94" x2="199.69" y2="8.39"/><line class="cls-3" x1="204.69" y1="-3.28" x2="179.27" y2="62.21"/><line class="cls-3" x1="210.19" y1="2.56" x2="205.5" y2="11.89"/><line class="cls-3" x1="214.11" y1="16.17" x2="202.36" y2="10.33"/><polyline class="cls-3" points="168.3 61.08 167.86 53.7 169.86 48.34"/><polyline class="cls-3" points="192.72 27.55 210.19 35.6 235.19 49.05"/><line class="cls-3" x1="182.11" y1="54.89" x2="204.44" y2="62.98"/><line class="cls-3" x1="208.23" y1="35.06" x2="192.36" y2="58.94"/><line class="cls-3" x1="190.39" y1="33.57" x2="204.18" y2="41.16"/><line class="cls-3" x1="206.7" y1="52.06" x2="200.3" y2="51.49"/><line class="cls-3" x1="230.02" y1="22.68" x2="220.98" y2="41.41"/><polyline class="cls-3" points="228.36 -3.28 286.71 95.23 353.6 41.06"/><line class="cls-3" x1="254.56" y1="52.83" x2="241.19" y2="49.06"/><polyline class="cls-3" points="264.17 49.65 308.03 60.51 316.53 61.08 400.22 79.24 453.14 95.23 504.36 110.22"/><line class="cls-3" x1="283.51" y1="43.16" x2="280.49" y2="53.69"/><line class="cls-3" x1="293.83" y1="39.63" x2="288.85" y2="55.76"/><polyline class="cls-3" points="303.21 59.31 320.1 68.47 345.69 75.22 362.36 77.72 396.01 90.88 420.34 144.61 430.69 174.22 423.75 231.2"/><polyline class="cls-3" points="348.19 62.21 332.71 58.37 324.53 42.22 330.77 25.1"/><polyline class="cls-3" points="371.53 -4.45 352.03 45.05 340.36 101.13 379.86 126.06"/><polyline class="cls-3" points="322.73 -4.45 353.6 41.06 366.95 55.76 389.86 76.99"/><polyline class="cls-3" points="422.94 -4.45 414.86 21.91 340.36 101.13 304.15 116.77 243.47 104.62 197.11 98.52"/><polyline class="cls-3" points="198.05 93.96 188.4 86.99 172 79.34 175.83 69.92"/><line class="cls-3" x1="227.57" y1="76.47" x2="216.98" y2="104.14"/><line class="cls-3" x1="234.47" y1="78.47" x2="220.98" y2="110.22"/><polyline class="cls-3" points="196.89 99.57 223.41 120.4 271.26 89.04 273.32 72.62"/><polyline class="cls-3" points="253.07 143.13 266.28 118.07 269.81 109.89 271.26 89.04"/><line class="cls-3" x1="271.26" y1="135.29" x2="266.28" y2="118.07"/><line class="cls-3" x1="265.86" y1="147.06" x2="256.52" y2="136.59"/><polyline class="cls-3" points="242.88 56.25 254.56 60.09 250 75.73 272.37 80.21"/><line class="cls-3" x1="253.07" y1="83.81" x2="254.56" y2="76.64"/><polyline class="cls-3" points="251.05 58.94 245.37 78.47 253.82 79.94"/><line class="cls-3" x1="316.19" y1="71.36" x2="305.15" y2="96.43"/><line class="cls-3" x1="307.41" y1="78.47" x2="300.03" y2="95.64"/><polyline class="cls-3" points="313.8 97.73 304.15 116.77 345.95 126.06 387.43 139.69 382.04 152.19 382.75 159.52 373.1 171.48 374.18 187.38 370.25 189.88 360.11 187.38"/><polyline class="cls-3" points="368.1 150.59 387.43 139.69 395.61 163.8 394.72 174.22 387.43 190.6 372.96 192.03 370.6 195.96 360.11 191.67 360.11 180.24 358.25 174.22 341.49 170.57 342.2 146.12 345.95 126.06"/><polyline class="cls-3" points="328.44 127.47 324.53 139.69 342.2 146.12 359.35 147.06 369.71 151.48 382.04 152.19"/><polyline class="cls-3" points="372.96 134.93 368.1 144.51 343.55 138.93"/><line class="cls-3" x1="352.3" y1="128.14" x2="353.28" y2="141.14"/><line class="cls-3" x1="364.83" y1="132.26" x2="362.01" y2="143.13"/><line class="cls-3" x1="344.08" y1="136.09" x2="327.82" y2="129.41"/><line class="cls-3" x1="334.88" y1="143.13" x2="336.36" y2="132.92"/><polyline class="cls-3" points="362.01 161.01 341.9 156.48 323.44 147.06 314.69 166.84 326.12 175.24"/><polyline class="cls-3" points="324.53 169.52 338.35 171.48 333.09 178.56 338.35 185.6"/><polyline class="cls-3" points="343.55 184.34 349.7 186.67 354.88 180.06 341.49 170.57 338.35 171.48"/><polyline class="cls-3" points="321.84 141.14 318.8 128.14 311.86 128.87 310.02 132.75 294.86 139.72 293.61 149.16 299.51 154.69 312.91 158.31"/><polyline class="cls-3" points="319.51 145.76 311.3 143.81 304.15 144.78 294.32 143.81"/><polyline class="cls-3" points="293.89 147.06 284.68 150.59 281.29 161.15 274.5 172.38 275.39 181.84 286.47 192.74"/><polyline class="cls-3" points="268.79 163.35 275.59 170.57 293.61 177.56 303.21 186.67 350.42 207.75 354.88 209.71 364.83 235.08 365.57 252.3 378.07 288.89"/><polyline class="cls-3" points="261.19 179.6 300.94 200.42 319.51 211.5 341.49 229.72 341.49 259.26 349.45 280.97"/><line class="cls-3" x1="261.19" y1="193.99" x2="290.32" y2="211.85"/><polyline class="cls-3" points="274.68 186.67 264.32 204.35 273.32 210.6"/><polyline class="cls-3" points="286.47 192.74 261.19 229.42 274.84 221.46"/><line class="cls-3" x1="281.11" y1="238.11" x2="271.96" y2="213.79"/><polyline class="cls-3" points="281.11 200.51 316.12 221.86 314.69 226.68 330.59 233.06"/><line class="cls-3" x1="334.88" y1="224.24" x2="320.15" y2="253.71"/><line class="cls-3" x1="313.36" y1="207.83" x2="301.34" y2="246.56"/><line class="cls-3" x1="297.54" y1="229.42" x2="291.86" y2="242.67"/><line class="cls-3" x1="308.5" y1="223.48" x2="298.26" y2="219.43"/><line class="cls-3" x1="314.69" y1="233.06" x2="308.5" y2="250"/><line class="cls-3" x1="321.52" y1="229.42" x2="313.36" y2="250.8"/><line class="cls-3" x1="290.32" y1="227.2" x2="285.78" y2="240.11"/><line class="cls-3" x1="293.61" y1="177.56" x2="288.66" y2="193.99"/><line class="cls-3" x1="303.21" y1="186.67" x2="296.9" y2="198.31"/><line class="cls-3" x1="307.73" y1="188.68" x2="314.69" y2="200.51"/><line class="cls-3" x1="320.97" y1="194.6" x2="315.8" y2="209.29"/><polyline class="cls-3" points="320.98 212.71 324.53 204.35 331.44 207.03"/><polyline class="cls-3" points="330.59 220.68 331.44 212.71 349.35 212.71 350.42 207.75"/><line class="cls-3" x1="341.49" y1="229.72" x2="341.49" y2="212.71"/><line class="cls-3" x1="331.44" y1="219.43" x2="361.25" y2="225.95"/><polyline class="cls-3" points="341.49 232.22 364.83 235.08 411.15 221.46 428.01 234.49"/><polyline class="cls-3" points="406.53 239.81 391.15 216.68 391.15 205.25 401.51 192.49 403.32 161.15"/><polyline class="cls-3" points="389.86 227.72 395.61 242.87 421.88 259.81 459.22 276.53 505.09 291.71"/><line class="cls-3" x1="389.09" y1="244.79" x2="382.04" y2="217.6"/><line class="cls-3" x1="295.77" y1="179.6" x2="301.34" y2="165.59"/><polyline class="cls-3" points="278.6 165.59 298.26 173.33 305.85 170.57 313.36 174.22 321.84 185.77"/><line class="cls-3" x1="351.49" y1="194.6" x2="350.42" y2="200.51"/><polyline class="cls-3" points="372.96 204.35 331.44 184.88 324.53 183.81 320.15 187.38 370.96 209.28"/><polyline class="cls-3" points="374.18 187.38 383.57 186.67 383.57 170.57 403.32 161.15 407.4 165.59 431.87 164.88"/><polyline class="cls-3" points="402.05 183.1 430.69 174.22 437.6 131.29 444.64 74.9 453.13 27.33"/><polyline class="cls-3" points="428.21 194.6 401.51 192.49 399.18 215.87"/><line class="cls-3" x1="425.66" y1="215.54" x2="399.86" y2="210.6"/><polyline class="cls-3" points="402.05 181.13 416.37 172.59 420.26 181.13 417.94 193.99"/><polyline class="cls-3" points="365.57 206.96 360.29 223.48 375.25 218.28 399.18 215.87 411.15 221.46"/><line class="cls-3" x1="243.35" y1="198.64" x2="238.33" y2="219.43"/><line class="cls-3" x1="426.7" y1="206.96" x2="452.31" y2="216.78"/><line class="cls-3" x1="437.6" y1="232.44" x2="444.51" y2="213.79"/><line class="cls-3" x1="452.36" y1="220.68" x2="443.09" y2="217.6"/><line class="cls-3" x1="452.31" y1="223.48" x2="441.05" y2="224.24"/><polyline class="cls-3" points="452.36 198.64 429.52 183.81 452.76 167.02 475.28 149.4 474.03 113.27"/><line class="cls-3" x1="452.31" y1="179.6" x2="429.52" y2="183.81"/><polyline class="cls-3" points="418.13 139.72 436.51 138.02 453.31 129.41 474.03 113.27 476.17 96.43 487.43 65.91 490.46 36.27 487.78 -3.28"/><polyline class="cls-3" points="414.86 21.91 490.46 34.12 474.56 52.88 468.85 59.31 452.86 92.56"/><polyline class="cls-3" points="453.13 127.47 414.86 83.66 404.11 108.77"/><line class="cls-3" x1="435.08" y1="57.23" x2="425.98" y2="79.94"/><polyline class="cls-3" points="417.57 26.17 434.75 33.47 451.21 38.09 480.41 45.98 489.22 48.42 504.36 50.73"/><polyline class="cls-3" points="504.93 68.59 487.43 65.91 448.73 51.99 430.69 44.81"/><polyline class="cls-3" points="465.01 41.81 463.85 47.69 488.32 57.23"/><line class="cls-3" x1="494.41" y1="107.31" x2="500" y2="147.62"/><line class="cls-3" x1="474.47" y1="126.06" x2="497.2" y2="125.27"/><line class="cls-3" x1="474.65" y1="138.02" x2="498.92" y2="139.83"/><polyline class="cls-3" points="427.59 115.97 428.62 123.6 421.3 123.6"/><line class="cls-3" x1="388.95" y1="117.36" x2="409.1" y2="119.79"/><line class="cls-3" x1="411.18" y1="124.38" x2="404.11" y2="123.6"/><line class="cls-3" x1="397.2" y1="134.03" x2="411.18" y2="130.65"/><line class="cls-3" x1="390.35" y1="110.78" x2="397.2" y2="111.69"/><polyline class="cls-3" points="389.86 88.48 385.56 101.74 384.26 110.78 378.01 124.89"/><polyline class="cls-3" points="352.3 99.37 350.25 107.37 348.19 120.4 314.69 112.22 319.51 98.57"/><line class="cls-3" x1="362.01" y1="99.37" x2="360.85" y2="109.64"/><polyline class="cls-3" points="356.3 110.78 367.89 111.69 367.89 118.07"/><line class="cls-3" x1="369.45" y1="99.89" x2="368.55" y2="106.68"/><line class="cls-3" x1="372.96" y1="73.32" x2="366.22" y2="99.37"/><line class="cls-3" x1="382.56" y1="75.4" x2="375.33" y2="100.44"/><line class="cls-3" x1="340.36" y1="101.13" x2="334.46" y2="114.43"/><line class="cls-3" x1="483.65" y1="76.14" x2="452.66" y2="67.12"/><line class="cls-3" x1="484.69" y1="73.32" x2="456.9" y2="64.18"/><polyline class="cls-3" points="409.83 59.31 416.43 67.12 412.59 77.75 418.13 79.94 439.38 20.54 420.08 14.65"/><line class="cls-3" x1="410.75" y1="57.23" x2="424.03" y2="63.43"/><polyline class="cls-3" points="361.14 21.91 366.95 33.06 426.77 55.76"/><line class="cls-3" x1="360.29" y1="48.42" x2="366.95" y2="33.06"/><polyline class="cls-3" points="378.01 66 379.86 37.95 382.56 21.91 383.77 14.65 391.45 -4.45"/><line class="cls-3" x1="364.25" y1="14.03" x2="379.86" y2="21.91"/><line class="cls-3" x1="368.15" y1="4.14" x2="384.73" y2="11.67"/><line class="cls-3" x1="381.84" y1="26.17" x2="391.97" y2="30.78"/><polyline class="cls-3" points="392.93 77.66 404.46 47.29 412.95 23.94"/><line class="cls-3" x1="417.02" y1="38.45" x2="408.47" y2="36.27"/><line class="cls-3" x1="394.41" y1="43.66" x2="387.43" y2="74.73"/><line class="cls-3" x1="379.86" y1="4.88" x2="396.07" y2="11.67"/><line class="cls-3" x1="344.29" y1="27.33" x2="338.56" y2="42.41"/><polyline class="cls-3" points="328.14 26.17 332.75 10.33 365.46 10.95"/><polyline class="cls-3" points="330.68 54.35 317.3 52.83 314.69 60.8"/><polyline class="cls-3" points="310.67 63.36 306.67 72.62 309.87 76.47"/><line class="cls-3" x1="320.14" y1="53.16" x2="321.53" y2="47"/><line class="cls-3" x1="327.1" y1="47.29" x2="333.5" y2="48.37"/><line class="cls-3" x1="328.14" y1="34.87" x2="335.1" y2="36.27"/><polyline class="cls-3" points="274.27 -3.28 265.11 16.17 260.69 43.89 258.14 46.99"/><polyline class="cls-3" points="305.15 -4.45 301.65 8.39 322.17 17.22"/><polyline class="cls-3" points="272.72 0 295.04 9.76 297.32 -4.45"/><line class="cls-3" x1="234.09" y1="6.39" x2="241.74" y2="1.29"/><line class="cls-3" x1="248.4" y1="3.39" x2="244.17" y2="13.39"/><polyline class="cls-3" points="253.82 0 245.37 19.75 230.31 46.43 225.31 62.36 230.02 70.09 229.36 76.99"/><line class="cls-3" x1="258.14" y1="4.62" x2="253.07" y2="13.39"/><line class="cls-3" x1="263.25" y1="5.14" x2="257.63" y2="17.22"/><line class="cls-3" x1="215.95" y1="7.22" x2="225.31" y2="13.25"/><line class="cls-3" x1="232.37" y1="14.74" x2="240.44" y2="20.7"/><polyline class="cls-3" points="475.28 149.4 460.86 187.38 452.11 201.22"/><polyline class="cls-3" points="504.36 161.15 491.53 162.06 472.8 155.95"/><line class="cls-3" x1="467.64" y1="169.52" x2="491.53" y2="162.06"/><polyline class="cls-3" points="497.2 147.62 495.86 183.81 491.53 195.96 485.84 206.96"/><polyline class="cls-3" points="452.31 203.47 466.03 204.18 489.69 207.75 504.36 206.96"/><polyline class="cls-3" points="458.41 191.25 480.86 191.25 504.36 200.48"/><polyline class="cls-3" points="461.54 185.6 470.19 185.77 504.36 175.68"/><line class="cls-3" x1="480.86" y1="191.25" x2="479.26" y2="183.1"/><polyline class="cls-3" points="504.36 195.96 492.76 192.49 488.58 180.34 486.79 172.59 504.36 170.57"/><line class="cls-3" x1="463.82" y1="179.6" x2="486.79" y2="172.59"/><line class="cls-3" x1="474.47" y1="191.25" x2="472.79" y2="204.35"/><line class="cls-3" x1="436.36" y1="150.06" x2="452.76" y2="167.02"/><polyline class="cls-3" points="395.61 132.75 404.86 155.06 422.94 150.72"/><line class="cls-3" x1="413.7" y1="141.7" x2="400.6" y2="144.78"/><polyline class="cls-3" points="412.76 153.16 409.1 142.78 404.19 137.33"/><line class="cls-3" x1="466.03" y1="204.18" x2="466.03" y2="227.2"/><line class="cls-3" x1="482.95" y1="206.73" x2="484.72" y2="225.57"/><line class="cls-3" x1="504.36" y1="213.07" x2="484.31" y2="221.21"/><polyline class="cls-3" points="253.48 144.78 223.41 120.4 215.41 126.68 203.38 150.74 215.96 168.31 165.29 217.69 109.97 236.4 83.43 247.28 68.94 257.26 78.96 270.9"/><polyline class="cls-3" points="0 285.31 19.13 261.94 24.66 253.62 35.84 237.29 81.69 195.65 150.33 135.37 203.12 69.42"/><polyline class="cls-3" points="144.81 88.23 194.58 110.76 215.41 126.68"/><polyline class="cls-3" points="130.25 256.94 121.28 229.42 93.91 186.67 84.79 179.05 101.11 160.18 127.47 115.32 142.95 89.04 156.68 60.8"/><line class="cls-3" x1="152.78" y1="91.84" x2="133.35" y2="120.4"/><polyline class="cls-3" points="161.21 95.66 138.95 125.27 115.96 151.55"/><line class="cls-3" x1="172" y1="100.54" x2="146.24" y2="131.7"/><polyline class="cls-3" points="156.68 141.23 177.31 119.32 191.59 125.27"/><polyline class="cls-3" points="166.33 151.55 170.84 143.81 160.45 137.22"/><line class="cls-3" x1="207.84" y1="141.82" x2="190.55" y2="130.28"/><line class="cls-3" x1="213.61" y1="130.28" x2="193.8" y2="114.54"/><line class="cls-3" x1="204.44" y1="147.06" x2="189.25" y2="136.59"/><polyline class="cls-3" points="185.39 155.32 199.2 165.59 199.2 169.9 191.59 178.56 186.36 179.05"/><polyline class="cls-3" points="224.23 216.29 223.54 198.64 209.67 183.11 206.34 175.68 199.2 169.9"/><polyline class="cls-3" points="209.53 159.33 204.69 162.58 200.3 160.95 199.2 165.59"/><line class="cls-3" x1="157.79" y1="83.89" x2="172.87" y2="91.84"/><line class="cls-3" x1="111.39" y1="122.41" x2="118.92" y2="129.86"/><polyline class="cls-3" points="87.36 116.77 143.06 164.1 179.04 204.29 199.2 235.33"/><line class="cls-3" x1="185.03" y1="240.32" x2="175.25" y2="207.99"/><line class="cls-3" x1="180.91" y1="241.66" x2="168.93" y2="214.14"/><polyline class="cls-3" points="172 211.15 146.24 183.31 120.73 161.36 107.14 149.92 80.85 126.68"/><polyline class="cls-3" points="74.39 136.05 101.11 160.18 137.19 194.26 157.79 220.22"/><polyline class="cls-3" points="170.84 244.86 146.18 224.15 101.11 178.56 92.12 170.57"/><line class="cls-3" x1="94.73" y1="167.56" x2="68.35" y2="144.39"/><line class="cls-3" x1="127.08" y1="184.71" x2="106.73" y2="206.7"/><line class="cls-3" x1="104.65" y1="175.48" x2="123.54" y2="188.54"/><polyline class="cls-3" points="170.84 155.75 152.24 174.35 146.24 183.31 137.19 194.26 128.16 205.92 108.12 220.22"/><polyline class="cls-3" points="136.29 214.14 128.1 222.12 131.48 229.12"/><line class="cls-3" x1="135.08" y1="227.9" x2="143.06" y2="253.23"/><polyline class="cls-3" points="149.56 226.99 156.29 249.31 172.68 280.07 180.91 303.88"/><line class="cls-3" x1="149.56" y1="209.85" x2="161.99" y2="200.33"/><line class="cls-3" x1="174.92" y1="169.9" x2="158.49" y2="181.33"/><line class="cls-3" x1="166.7" y1="181.33" x2="183.81" y2="169.9"/><line class="cls-3" x1="165.42" y1="189.07" x2="185.88" y2="176.05"/><line class="cls-3" x1="173.69" y1="198.3" x2="188.61" y2="184.71"/><line class="cls-3" x1="143.06" y1="164.1" x2="160.45" y2="144.96"/><line class="cls-3" x1="156.68" y1="232.96" x2="174.92" y2="227.9"/><line class="cls-3" x1="163.85" y1="238.99" x2="161.99" y2="231.49"/><line class="cls-3" x1="207.05" y1="187.99" x2="193.36" y2="200.33"/><polyline class="cls-3" points="204.44 197.53 195.01 205.83 207.05 204.35 218.36 193.09"/><polyline class="cls-3" points="198.05 216.29 207.05 207.71 213.61 214.14 219.54 207.71 224.01 210.6"/><polyline class="cls-3" points="101.56 239.84 76.28 200.56 48.68 167.18 50.19 186.67 59.79 215.54"/><polyline class="cls-3" points="55.5 219.43 70.28 236.79 80.88 229.12"/><polyline class="cls-3" points="92.08 243.73 66.95 209.03 53.75 189.07 34.87 173.94 13.3 158.31"/><line class="cls-3" x1="64.86" y1="240.57" x2="59.36" y2="243.73"/><polyline class="cls-3" points="68.94 257.26 46.36 227.74 15.95 205.83"/><polyline class="cls-3" points="0 189.07 17.14 210.6 29.2 227.9 60.75 265.61"/><line class="cls-3" x1="2.1" y1="241.66" x2="35.84" y2="237.29"/><line class="cls-3" x1="26.59" y1="250.8" x2="-5.14" y2="226.99"/><polyline class="cls-3" points="-5.14 219.43 18.97 202.92 52.57 164.1"/><line class="cls-3" x1="8.96" y1="200.33" x2="30.37" y2="179.6"/><line class="cls-3" x1="4.05" y1="194.16" x2="17.4" y2="182.01"/><line class="cls-3" x1="23.81" y1="158.87" x2="-5.14" y2="184.71"/><polyline class="cls-3" points="19.67 158.4 13.3 151.55 -5.14 144.96"/><polyline class="cls-3" points="-5.14 150.58 25.11 112.5 43.71 95.66"/><polyline class="cls-3" points="67.84 65.57 50.87 86.22 64.86 101.87 87.86 81.94"/><line class="cls-3" x1="96.64" y1="101.87" x2="72.38" y2="79.94"/><polyline class="cls-3" points="58.4 77.06 67.84 89.04 87.86 90.31"/><polygon class="cls-3" points="53.54 60.51 45.29 68.73 53.54 77.06 62.01 68.23 53.54 60.51"/><line class="cls-3" x1="-5.14" y1="39.52" x2="13.63" y2="27.56"/><polyline class="cls-3" points="69.36 143.02 43.71 127.23 16.19 158.31"/><line class="cls-3" x1="7.79" y1="134.3" x2="36.1" y2="160.69"/><polyline class="cls-3" points="52.57 147.49 56.68 139.27 43.71 127.23 10.72 100.54"/><polyline class="cls-3" points="34.38 206.7 39.72 212.45 46.15 206.7 40.27 201.02"/><line class="cls-3" x1="38.08" y1="205.09" x2="42.78" y2="209.71"/><line class="cls-3" x1="40.43" y1="211.81" x2="51.97" y2="222.64"/><line class="cls-3" x1="45.02" y1="207.71" x2="54.49" y2="219.43"/><line class="cls-3" x1="19.21" y1="213.57" x2="39.72" y2="233.06"/><line class="cls-3" x1="93.8" y1="212.45" x2="87.36" y2="217.78"/><line class="cls-3" x1="101.56" y1="223.72" x2="94.66" y2="229.12"/><line class="cls-3" x1="83.43" y1="247.28" x2="95.4" y2="266.64"/><line class="cls-3" x1="98.11" y1="241.66" x2="106.73" y2="263.56"/><line class="cls-3" x1="105.7" y1="238.15" x2="116.09" y2="260.96"/><polyline class="cls-3" points="102.67 253.23 106.73 253.23 110.89 262.41"/><line class="cls-3" x1="61.3" y1="247.28" x2="28.78" y2="273.45"/><line class="cls-3" x1="53.67" y1="246.23" x2="57.49" y2="250.35"/><polyline class="cls-3" points="-5.14 248.29 15.67 257.82 19.13 261.94 -5.14 282.21"/><line class="cls-3" x1="-2.28" y1="273.95" x2="9.33" y2="254.92"/><polyline class="cls-3" points="-2.27 328.54 5.97 328.54 9.33 334.59 85.71 280.17"/><line class="cls-3" x1="92.08" y1="277.75" x2="106.78" y2="271.93"/><polyline class="cls-3" points="105.7 263.84 110.89 283.35 130.46 277.75"/><line class="cls-3" x1="133.04" y1="285.31" x2="118.08" y2="290.38"/><line class="cls-3" x1="135.52" y1="292.52" x2="67.3" y2="308.61"/><polyline class="cls-3" points="78.49 285.31 102.67 339.28 105.7 350.02 137.41 346.33"/><polyline class="cls-3" points="143.06 314.36 116.09 323.14 110.89 349.42 115.21 378.34"/><polyline class="cls-3" points="70.42 372.83 106.78 367.57 151.36 365.56 166.61 374.33 184.39 394.14 261.48 391.2 371.27 395.34 434.58 395.34 463.56 398.95 487.27 406.23 504.36 416.61"/><polyline class="cls-3" points="105.7 350.02 35.84 352.02 9.33 334.59 -2.27 343.31"/><line class="cls-3" x1="-2.28" y1="335.7" x2="68.47" y2="332.58"/><polyline class="cls-3" points="43.75 310.06 60.75 332.92 61.3 343.31 69.23 351.07"/><line class="cls-3" x1="35.84" y1="334.14" x2="37.07" y2="376.11"/><polyline class="cls-3" points="70.42 375.4 35.84 352.02 43.75 344.65 42.44 334.14"/><line class="cls-3" x1="60.75" y1="338.17" x2="42.94" y2="338.17"/><line class="cls-3" x1="61.3" y1="343.3" x2="43.75" y2="344.65"/><polyline class="cls-3" points="20.94 342.23 13.3 352.93 15.95 356.06"/><polyline class="cls-3" points="35.84 352.02 20.94 354.77 -5.14 369.94"/><line class="cls-3" x1="26.64" y1="376.69" x2="26.59" y2="363.23"/><line class="cls-3" x1="38.05" y1="284.53" x2="26.59" y2="290.38"/><line class="cls-3" x1="43.75" y1="291.34" x2="27.45" y2="299.93"/><line class="cls-3" x1="49.09" y1="297.73" x2="37.07" y2="306.17"/><line class="cls-3" x1="32.32" y1="318.2" x2="32.32" y2="329.66"/><line class="cls-3" x1="101.41" y1="304.93" x2="139.07" y2="302.84"/><polyline class="cls-3" points="131.48 366.45 131.48 358.98 195.27 236.79"/><line class="cls-3" x1="112.39" y1="359.44" x2="131.48" y2="358.97"/><line class="cls-3" x1="139.66" y1="343.3" x2="152.19" y2="340.32"/><polyline class="cls-3" points="165.43 293.95 139.66 254.22 198.05 299.93 163.85 307.38"/><line class="cls-3" x1="166.61" y1="246.17" x2="172.68" y2="280.07"/><line class="cls-3" x1="186.39" y1="253.8" x2="168.95" y2="259.26"/><line class="cls-3" x1="199.2" y1="280.07" x2="178.37" y2="284.53"/><line class="cls-3" x1="198.62" y1="285.31" x2="218.47" y2="284.53"/><line class="cls-3" x1="223.35" y1="299.05" x2="198.05" y2="299.93"/><line class="cls-3" x1="197.58" y1="314.36" x2="227.16" y2="310.06"/><line class="cls-3" x1="197.12" y1="329.51" x2="232.5" y2="325.31"/><polyline class="cls-3" points="206.68 366.81 200.41 342.23 201.2 331.45"/><line class="cls-3" x1="89.41" y1="286.45" x2="97.04" y2="283.35"/><line class="cls-3" x1="99.43" y1="368.63" x2="102.66" y2="388.68"/><line class="cls-3" x1="110.89" y1="372.73" x2="100.35" y2="374.33"/><polyline class="cls-3" points="75.36 376.06 90.47 392.24 95.4 408.05 101.05 435.72 134.18 452.73 150.22 457.58"/><polyline class="cls-3" points="144.94 445.88 137.41 445.88 110.89 432.14 100.35 432.14"/><polyline class="cls-3" points="101.05 435.72 94.58 441.56 74.94 444.82 62.81 451.22 45.17 474.39"/><polyline class="cls-3" points="110.89 432.14 113.84 405.03 112.79 385.64"/><line class="cls-3" x1="146.56" y1="400.65" x2="113.55" y2="399.63"/><line class="cls-3" x1="89.86" y1="456.31" x2="97.71" y2="444.82"/><line class="cls-3" x1="94.58" y1="441.56" x2="114.81" y2="453.96"/><line class="cls-3" x1="118.77" y1="444.82" x2="107.95" y2="469.81"/><line class="cls-3" x1="121.93" y1="478.18" x2="140.47" y2="435.72"/><line class="cls-3" x1="92.57" y1="457.58" x2="75.36" y2="492.56"/><path class="cls-3" d="M95.47,501.73s-8.72-10.52-22.37-8.5-14.68-7.07-14.68-7.07l-1.93-6.4-61.63-29.2"/><polyline class="cls-3" points="9.86 476.15 17.12 461.11 34.39 426.29 -5.14 445.88"/><polyline class="cls-3" points="23.91 412.31 7.54 391.64 54.44 382.25"/><line class="cls-3" x1="39.09" y1="458.82" x2="27.35" y2="440.48"/><polyline class="cls-3" points="161.48 375.09 163.38 392.83 148.57 453.96 139.66 485.42 131.2 505.56"/><line class="cls-3" x1="183.86" y1="503.74" x2="177.05" y2="474.03"/><line class="cls-3" x1="166.61" y1="503.74" x2="179.12" y2="483.06"/><line class="cls-3" x1="210.13" y1="469.81" x2="196.61" y2="493.4"/><polyline class="cls-3" points="213.24 412.31 190.87 414.52 185.02 471.93"/><line class="cls-3" x1="192.36" y1="470" x2="204.87" y2="413.14"/><line class="cls-3" x1="208.96" y1="465.67" x2="212.57" y2="411.78"/><line class="cls-3" x1="231.38" y1="426.86" x2="211.62" y2="424.68"/><line class="cls-3" x1="224.03" y1="484.14" x2="237.49" y2="464.69"/><line class="cls-3" x1="262.16" y1="480.59" x2="248.04" y2="505.56"/><line class="cls-3" x1="267.71" y1="488.89" x2="257.22" y2="505.56"/><line class="cls-3" x1="163.38" y1="420.45" x2="184.39" y2="429.23"/><polyline class="cls-3" points="392.59 395.34 395.18 361.49 435.36 365.56"/><polyline class="cls-3" points="407.87 356.63 405.14 395.34 398.32 433.66 380.2 431.06"/><polyline class="cls-3" points="504.36 386.6 468.83 373.07 435.36 365.56 419.75 352.1 415.86 363.58"/><line class="cls-3" x1="487.27" y1="406.23" x2="495.97" y2="383.4"/><polyline class="cls-3" points="409.11 447.58 413.82 426.06 434.41 423.74 458.03 428.52 504.36 439.97"/><polyline class="cls-3" points="504.36 447.58 488.67 446.06 433.96 431.06 396.31 422.66"/><line class="cls-3" x1="403.9" y1="434.42" x2="405.27" y2="424.66"/><polyline class="cls-3" points="351.4 408.1 378.23 411.14 421.72 411.14 421.72 395.14"/><polyline class="cls-3" points="452.86 229.6 453.64 242.67 455.97 284.12 452.9 292.18 450.39 305.04 447.91 335.47 445.22 342.49 435.36 365.56 434.58 395.34 433.96 431.06 432.84 454.41 432.04 492.11"/><line class="cls-3" x1="462.05" y1="407.94" x2="434.41" y2="405.45"/><polyline class="cls-3" points="504.36 426.06 479.83 415.84 471.6 431.88"/><polyline class="cls-3" points="421.72 425.17 421.72 411.14 434.29 412.59"/><polyline class="cls-3" points="378.23 411.14 399.72 395.14 398.01 411.14"/><line class="cls-3" x1="424.47" y1="350.32" x2="441.87" y2="350.32"/><line class="cls-3" x1="441.11" y1="352.1" x2="470.01" y2="360.51"/><line class="cls-3" x1="471.1" y1="354" x2="484.17" y2="356.63"/><line class="cls-3" x1="482.16" y1="344.71" x2="480.14" y2="355.31"/><line class="cls-3" x1="504.36" y1="338.67" x2="474.62" y2="333.05"/><polyline class="cls-3" points="503.54 349.05 464.8 341.46 425.91 331.07 402.26 321.89"/><line class="cls-3" x1="505.09" y1="260.88" x2="466.62" y2="256.72"/><line class="cls-3" x1="483.04" y1="284.65" x2="487.74" y2="259"/><polyline class="cls-3" points="472.88 267.53 463.53 317.59 475.2 329.55 462.06 407.94 451.85 460.09"/><polyline class="cls-3" points="454.1 250.8 420.33 250.8 417.23 278.23 412.12 297.76 404.06 314.34 396.93 338.67 394.04 352.1 385.73 365.14"/><line class="cls-3" x1="363.17" y1="373.91" x2="372.76" y2="352.1"/><polyline class="cls-3" points="339.05 352.1 394.04 352.1 419.75 352.1"/><polyline class="cls-3" points="396.93 338.67 409.64 342.7 413.36 352.1"/><polyline class="cls-3" points="427.84 349.05 421.72 337.58 441.87 304.23"/><line class="cls-3" x1="409.64" y1="342.7" x2="421.72" y2="337.58"/><line class="cls-3" x1="421.72" y1="329.45" x2="426.82" y2="310.58"/><polyline class="cls-3" points="411.84 317.17 347.92 294.19 331.91 344.71"/><line class="cls-3" x1="365.08" y1="346.33" x2="333.83" y2="338.67"/><line class="cls-3" x1="372.76" y1="340.58" x2="336.46" y2="330.35"/><polyline class="cls-3" points="375.08 321.89 342.1 312.56 310.17 303.46"/><polyline class="cls-3" points="369.01 343.34 371.87 333.05 394.04 267.45 398.84 266 407.87 296.42"/><polyline class="cls-3" points="446.68 302.19 412.12 297.76 386.52 289.69 347.92 286.06 301.34 272.19 272.38 254.22 214.07 225.95"/><polyline class="cls-3" points="207.05 246.17 224.77 240.31 229.96 233.65"/><line class="cls-3" x1="242.5" y1="221.21" x2="232.89" y2="235.08"/><polyline class="cls-3" points="211.72 260.57 219.65 254.22 236.44 236.79 259.51 228.68"/><polyline class="cls-3" points="224.77 240.31 229.96 244.06 251.77 255.4"/><line class="cls-3" x1="218.5" y1="255.14" x2="249.9" y2="266"/><line class="cls-3" x1="221.98" y1="295.02" x2="248.22" y2="290.01"/><polyline class="cls-3" points="216.01 276.66 240.84 268.47 289.76 286.06"/><line class="cls-3" x1="263.66" y1="297.73" x2="269.5" y2="274.67"/><line class="cls-3" x1="263.66" y1="276.67" x2="266.58" y2="269.56"/><polyline class="cls-3" points="252.89 330.35 261.19 317.22 297.54 275.91 317.48 252.76"/><polyline class="cls-3" points="279.12 346.35 282.57 314.36 291.86 289.38 295.7 278.01"/><polyline class="cls-3" points="281.11 326.12 276.54 326.12 276.54 331.45"/><polyline class="cls-3" points="317.48 325.31 311.84 348.27 313.1 393.15"/><polyline class="cls-3" points="259.97 385.39 235.1 384.63 257.21 373.91 341.21 378.34"/><polyline class="cls-3" points="315.97 331.45 295.7 322.61 293.24 348.01 290.55 375.67 292.15 418.8 285.18 446.4 286.34 465.67 274.09 503.74"/><polyline class="cls-3" points="282.71 501.42 286.15 495.51 292.28 497.22 289.79 503.74"/><polyline class="cls-3" points="298.41 443.05 299.36 470.79 288.65 496.2"/><polyline class="cls-3" points="295.03 494.31 299.36 484.14 298.53 472.76"/><polyline class="cls-3" points="280.15 484.93 276.04 463.41 299.04 461.27"/><line class="cls-3" x1="278.09" y1="474.03" x2="268.54" y2="483.99"/><polyline class="cls-3" points="306.44 491.65 323.63 494.31 339.29 500"/><line class="cls-3" x1="359.07" y1="488.09" x2="355.54" y2="500"/><line class="cls-3" x1="363.17" y1="503.74" x2="378.08" y2="451.46"/><line class="cls-3" x1="350.21" y1="467.06" x2="371.64" y2="474.03"/><polyline class="cls-3" points="333.83 466.64 339.29 468.31 375.28 461.27 337.5 456.31 322.69 451.46"/><line class="cls-3" x1="339.78" y1="449.72" x2="324.65" y2="444.37"/><polyline class="cls-3" points="319.36 437.75 311.05 459.88 319.36 461.27 327.36 435.73"/><polyline class="cls-3" points="297.2 419.83 309.2 440.32 315.97 423.69 322.69 393.51 330.38 362.23"/><line class="cls-3" x1="326.16" y1="362.23" x2="330.38" y2="346.35"/><line class="cls-3" x1="333.83" y1="363.01" x2="337.45" y2="350.32"/><polyline class="cls-3" points="302.9 397.7 301.62 408.89 318.31 413.17"/><line class="cls-3" x1="319.85" y1="406.27" x2="349.68" y2="416.41"/><polyline class="cls-3" points="335.64 427.96 342.1 394.24 339.85 383.05"/><polyline class="cls-3" points="274.09 391.68 274.09 405.44 281.11 405.44 281.11 391.94"/><polyline class="cls-3" points="242.99 358.98 248.04 379.65 245.62 393.15 245.62 409.06 230.53 460.21 265.98 483.06"/><line class="cls-3" x1="228.52" y1="392.46" x2="228.52" y2="406.27"/><line class="cls-3" x1="272.49" y1="433.66" x2="245.3" y2="410.13"/><polyline class="cls-3" points="412.37 448.5 402.17 475 379.12 467.06"/><line class="cls-3" x1="378.23" y1="448.58" x2="408.58" y2="458.34"/><polyline class="cls-3" points="420.74 450.89 410.59 478.31 403.9 503.74"/><line class="cls-3" x1="381.43" y1="479.01" x2="407.76" y2="489.1"/><line class="cls-3" x1="382.94" y1="484.92" x2="406.46" y2="494.04"/><line class="cls-3" x1="427.86" y1="494.04" x2="419.91" y2="482.08"/><line class="cls-3" x1="410.59" y1="478.31" x2="432.04" y2="485.72"/><line class="cls-3" x1="453.76" y1="491.66" x2="481.62" y2="505.56"/><polyline class="cls-3" points="475.2 505.56 484.04 476.15 504.36 484.06"/><polyline class="cls-3" points="432.04 479.01 454.1 477.6 477.83 468.31"/><line class="cls-3" x1="467.69" y1="465.01" x2="483.92" y2="444.75"/><line class="cls-3" x1="487.98" y1="465.81" x2="495.97" y2="446.76"/><line class="cls-3" x1="464.39" y1="450.89" x2="464.39" y2="463.97"/><line class="cls-3" x1="454.93" y1="461.03" x2="454.1" y2="477.6"/><line class="cls-3" x1="446.08" y1="458.34" x2="446.08" y2="478.31"/><line class="cls-3" x1="442.57" y1="456.29" x2="441.11" y2="478.43"/><line class="cls-3" x1="437.21" y1="456.29" x2="437.21" y2="478.68"/><polyline class="cls-3" points="433.38 461.75 449.86 468.33 475.34 467.48"/><line class="cls-3" x1="504.36" y1="489.48" x2="481.96" y2="483.06"/><polyline class="cls-3" points="339.29 468.31 338.77 483.06 266.53 484.93"/><line class="cls-3" x1="332.42" y1="470.55" x2="347.58" y2="475"/><line class="cls-3" x1="174.43" y1="383.05" x2="194.24" y2="383.05"/><polyline class="cls-3" points="287.41 240.31 280.08 259 312.28 258.8 320.15 277.26 307.35 310.86 275.75 301.62 248.25 292.52"/><line class="cls-3" x1="344.98" y1="303.46" x2="314.34" y2="292.52"/><line class="cls-3" x1="347.92" y1="294.19" x2="349.45" y2="286.06"/><line class="cls-3" x1="348.69" y1="257.93" x2="354.61" y2="273.98"/><line class="cls-3" x1="419.22" y1="259.82" x2="347.92" y2="281.44"/><polyline class="cls-3" points="353.09 279.87 358.52 261.92 356.37 255.4"/><line class="cls-3" x1="355.88" y1="270.63" x2="370.77" y2="267.53"/><line class="cls-3" x1="366.95" y1="258.8" x2="358.52" y2="261.92"/><polyline class="cls-3" points="313.79 257.05 323.43 264.07 323.43 273.11 320.15 277.26"/><polyline class="cls-3" points="326.17 279.58 328.27 273.11 348.36 278.01"/><polyline class="cls-3" points="344.52 267.53 328.27 263.45 328.27 256.38"/><polyline class="cls-3" points="355.8 305.57 360.29 314.36 375.84 304.23"/><line class="cls-3" x1="355.8" y1="324.14" x2="349.45" y2="352.1"/><line class="cls-3" x1="392.59" y1="297.99" x2="403.02" y2="302.19"/><line class="cls-3" x1="402.26" y1="294.65" x2="399.86" y2="300.92"/><line class="cls-3" x1="417.23" y1="278.23" x2="455.97" y2="284.12"/><line class="cls-3" x1="428.21" y1="300.09" x2="432.04" y2="280.48"/><line class="cls-3" x1="413.97" y1="288.9" x2="429.52" y2="293.35"/><polyline class="cls-3" points="452.9 299.5 473.63 303.46 481.15 301.48 483.84 285.97"/><polyline class="cls-3" points="498.51 289.54 492.54 306.52 481.15 301.48"/><polyline class="cls-3" points="395.61 242.87 401.06 261.92 413.98 245.83 420.26 246.56 421.75 235.95"/><line class="cls-3" x1="248.22" y1="281.44" x2="266.58" y2="286.06"/><line class="cls-3" x1="238.33" y1="291.71" x2="236.55" y2="279.58"/><line class="cls-3" x1="242.5" y1="282.3" x2="231.12" y2="283.35"/><line class="cls-3" x1="284.16" y1="291.12" x2="272.66" y2="290.01"/><path class="cls-3" d="M236.55,335.47s4.51-1.93,5.95,0c0,0,1.64-5.6,7.11-2.73,0,0,.86-1.28,4.29-1.28h26.82"/><line class="cls-3" x1="240.84" y1="348.05" x2="257.05" y2="342.7"/><line class="cls-3" x1="242.5" y1="335.46" x2="245.99" y2="346.35"/><line class="cls-3" x1="249.61" y1="332.73" x2="252.89" y2="344.07"/><path class="cls-3" d="M255.77,179.6,247.38,188l-35.66-37s-2-2.88,2.34-6.67,6.92-.54,6.92-.54Z"/><line class="cls-3" x1="211.72" y1="151.02" x2="203.39" y2="150.74"/><line class="cls-3" x1="220.33" y1="143.22" x2="220.98" y2="122.31"/><line class="cls-3" x1="240.01" y1="133.85" x2="214.31" y2="159.33"/><path class="cls-3" d="M241.66,195.71l-23.95-23.12,17.4-17.27a49.52,49.52,0,0,1,7.65-4.44c3-1.2,6.93-1.75,6.32-5.12s-10.52-10.47-10.52-10.47"/><polyline class="cls-3" points="229.24 161.15 247.87 179.6 243.79 184.27"/><line class="cls-3" x1="241.82" y1="165.25" x2="233.51" y2="173.61"/><line class="cls-3" x1="243.97" y1="192.49" x2="220.98" y2="169.52"/><polyline class="cls-3" points="220.33 165.5 206.69 150.74 220.98 125.27 236.61 137.22 253.07 177.36 245.07 185.6"/><line class="cls-3" x1="240.01" y1="197.47" x2="224.01" y2="181.78"/><polyline class="cls-3" points="250.28 170.57 253.48 169.52 251.88 161.15"/><path class="cls-4" d="M-5.14-6.94s36.5,44.5,59,61.5,101,83,108,92,18,15.5,21,21,29,96,34.5,113.5,22.5,65,22.5,65,5,12,12.5,10c0,0,9-.5,3.48-18s-15.68-57.26,3.67-109.38c0,0,26.64,54.38,35,64.38s32.35,48,38.85,53,10.5,14.5,16,21,7,15,17,23,17,28.5,12.5,53.5,11,62,11,62"/><path class="cls-4" d="M419.22,29.06s-4.36,22.5-12.36,36S388,112.77,387.43,129.41"/><path class="cls-4" d="M232.37,60.09,261.9,178.56s-2.54-19.5,4-31.5,21.43-53.42,21.43-53.42"/><line class="cls-4" x1="182.86" y1="167.56" x2="218.36" y2="-4.44"/><path class="cls-4" d="M167.86-4.44s5.9,37.5,57.45,28,137.05-28,137.05-28"/><line class="cls-4" x1="328.14" y1="2.85" x2="316.19" y2="31.59"/><path class="cls-4" d="M151.36-4.44S104.6,105.43,50.87,166"/><path class="cls-4" d="M-5.14,233.06s117.5,139.5,121.5,147,40.5,97.21,45,98.1,20.83-24.6,20.83-24.6"/><path class="cls-4" d="M154.42,466.46s10.23-22.4,17.58-18.4,30.66,12.46,45.51,28.73a279.75,279.75,0,0,1,23.28,28.77"/><polyline class="cls-4" points="345.86 431.06 205.81 466.46 161.36 478.16 150.22 505.56"/><line class="cls-4" x1="285.18" y1="446.4" x2="263.96" y2="476.15"/><path class="cls-4" d="M-5.14,379.06s61-5.5,80.5-3,226,44.5,252,50,152.5,40,177,52.25"/><path class="cls-4" d="M-5.14,426.86s20.5-12.3,38-17.8,70.62-20.26,85.31-25.13,43.22-8.87,60.71-11.37,64.48-15,73.48-16.5c0,0,4.87.1,5-5.4,0,0,11.68-7.1,33.1-3.1s37.2-4.2,45.56.9"/><path class="cls-4" d="M257.22,447.58l-59.79-47.95s-5.82-21.29-2.7-30.68,2.09-103.89,8.36-135.89"/><path class="cls-4" d="M80.36,270.56s16,30.5,32.5,49,36.5,38,38.5,46-11.86,67.93-11.86,67.93l29.36,14.09"/><path class="cls-4" d="M-5.14,407.06s22.5,9,36.5,17.5,41.5,17,50,24.5,28,24,44.5,30.5,42.5,19,49.5,26"/><path class="cls-4" d="M46.36,505.56s27.15-39.48,28.58-60.74-5.08-68.14-5.58-89.2S65.44,274,65.44,274"/><path class="cls-4" d="M355.54,376.89s-1.68,27.67-9.68,54.17-26.5,74.5-26.5,74.5"/><line class="cls-4" x1="361.03" y1="434.42" x2="337.45" y2="505.56"/><path class="cls-4" d="M405.86,505.56s32-16.5,44-22.5"/><path class="cls-4" d="M425.11,505.56s41.88-19.81,65.32-32.91"/><line class="cls-4" x1="386.4" y1="496.2" x2="258.97" y2="458.34"/><path class="cls-4" d="M310.6,440s4.28,29.59-9,65.59"/><line class="cls-4" x1="233.35" y1="495.51" x2="257.88" y2="453.96"/><line class="cls-4" x1="197.43" y1="399.63" x2="175.36" y2="449.72"/><path class="cls-4" d="M38.05,428.17s54.47-26,89.14-23.33,65.17,6.29,65.17,6.29"/><path class="cls-4" d="M-5.14,483.06s40.5-17.19,49-29.1,15.78-29.7,14.39-38.55-4.39-30.66-3.89-40"/><polyline class="cls-4" points="276.1 447.58 252.36 356.06 382.59 366.36"/><path class="cls-4" d="M327.36,426.06l18.5-63.72s28.93-26.78,60-42.28,89.54-33.5,98.54-55"/><path class="cls-4" d="M-5.14,192.06s39-17,56-26"/><path class="cls-5" d="M504.36,312.56s-16,14-68.5,33.5-158.64,61.5-166.57,65.5-14.17,30.37-11.41,42.4,14.84,51.6,14.84,51.6"/><path class="cls-5" d="M-5.14,160.56s49.5-13,78,23.5A804.52,804.52,0,0,1,124,258.73s28.38,83.83,35.38,100.83,16.5,25.5,11,38.5-12,43.5-12,43.5"/><path class="cls-5" d="M-5.14,244.06s66.5,21,86.5,29,74.79,37,90.64,44.5,80.36,38.5,80.36,38.5l24,92.56,8.79-2.22L264,476.15"/><path class="cls-5" d="M225.31,215.87s31.63-29.31,36.59-37.31,17-46,28.46-47.5,81.5-8,89.5-5,46.5,23,56.5,24,55.5-1,68-3"/><path class="cls-6" d="M-5.14,286.06s53.5-7.5,85.5-15.5,115.44-32,125-38,15.44-17.5,22.48-17,101.55,47.5,117.05,43.5,85.5-33,159.5-34.5"/><polyline class="cls-6" points="-4.1 382.25 7.54 391.64 5.97 503.74"/><path class="cls-6" d="M-5.14,77.06s44-27.5,69-41,71-43,71-43"/><path class="cls-6" d="M414.86,21.91s-45,1.15-61.5.15-24,3.5-33.5,8-74.5,26-103,35-105.4,36.63-105.4,36.63L44.71,46.89,0,0"/><path class="cls-6" d="M399.86-4.44s51,87,53,97-2,126.58,0,137,51.5,90,51.5,90"/></g></g></svg>