<svg xmlns="http://www.w3.org/2000/svg" xmlns:xlink="http://www.w3.org/1999/xlink" width="79.1" height="100.133" viewBox="0 0 79.1 100.133">
  <defs>
    <filter id="Subtraction_1" x="0" y="0" width="79.1" height="100.133" filterUnits="userSpaceOnUse">
      <feOffset dy="3" input="SourceAlpha"/>
      <feGaussianBlur stdDeviation="3" result="blur"/>
      <feFlood flood-opacity="0.161"/>
      <feComposite operator="in" in2="blur"/>
      <feComposite in="SourceGraphic"/>
    </filter>
  </defs>
  <g transform="matrix(1, 0, 0, 1, 0, 0)" filter="url(#Subtraction_1)">
    <path id="Subtraction_1-2" data-name="Subtraction 1" d="M30.55,82.133h0A164.844,164.844,0,0,1,15.275,64.771a102.864,102.864,0,0,1-10.5-16.608C1.606,41.694,0,35.852,0,30.8A30.83,30.83,0,0,1,8.948,9.021,30.5,30.5,0,0,1,58.7,18.811,30.825,30.825,0,0,1,61.1,30.8c0,5.051-1.606,10.893-4.773,17.364a102.865,102.865,0,0,1-10.5,16.608A164.887,164.887,0,0,1,30.551,82.133Zm-.415-69.962A18.313,18.313,0,1,0,48.3,30.484,18.26,18.26,0,0,0,30.135,12.171Zm2.289,31.815h0a15.191,15.191,0,0,1,3.38-9.553,10.356,10.356,0,0,1,7.954-3.948,13.7,13.7,0,0,1-11.333,13.5Zm-4.578,0h0a13.687,13.687,0,0,1-11.333-13.5,10.356,10.356,0,0,1,7.954,3.948,15.194,15.194,0,0,1,3.38,9.553Zm2.288-11.213a2.289,2.289,0,1,1,2.271-2.289A2.282,2.282,0,0,1,30.135,32.772Zm12.79-6.867H17.346a13.825,13.825,0,0,1,4.885-6.572,13.381,13.381,0,0,1,15.809,0A13.824,13.824,0,0,1,42.925,25.9Z" transform="translate(9 6)" fill="#fff"/>
  </g>
</svg>
